<svg xmlns="http://www.w3.org/2000/svg" viewBox="0 0 84.88 65.4"><defs><style>.cls-1{fill:#35465b;}</style></defs><g id="Capa_2" data-name="Capa 2"><g id="Capa_1-2" data-name="Capa 1"><path class="cls-1" d="M0,48.25c-.33-1,2.85-.55,5.83-1.57s4.55-2.77,6.26-4.6c4.59-4.91,7.18-11.26,9.45-15.83,3.18-6.41,7.36-14.82,15.7-20.55A32.38,32.38,0,0,1,50.41.34a30,30,0,0,1,16.85,2.3c12.22,5.62,15.94,18,16.47,19.91,3.72,13.21-2,26.46-10.34,34.21-2.25,2.1-7.59,7.33-15.83,8.43a23.46,23.46,0,0,1-4.35.18.8.8,0,0,1-.76-.8V60.44a1,1,0,0,1,.84-1c3.7-.76,12.69-3.25,18-11.16a24.89,24.89,0,0,0,2.89-6A21.37,21.37,0,0,0,73.64,26c-3.06-6.62-10-9.06-11.49-9.45-.38-.1-8.46-2.07-15.66,2.73-2.59,1.72-4,3.59-6.3,6.81-4.47,6.14-4.27,8.78-7.91,14.55C29.47,45.13,27,49.12,22.07,51.74c-6.35,3.41-14.16,3.15-19.07,0A7.4,7.4,0,0,1,0,48.25Z"/></g></g></svg>